<?xml version="1.0" encoding="UTF-8" standalone="no"?>
<!-- Generator: Adobe Illustrator 18.0.0, SVG Export Plug-In . SVG Version: 6.00 Build 0)  -->

<svg
   version="1.1"
   id="Layer_1"
   x="0px"
   y="0px"
   viewBox="0 0 960 960"
   enable-background="new 0 0 960 960"
   xml:space="preserve"
   sodipodi:docname="Icon_white_bg_round.svg"
   inkscape:version="1.2.2 (b0a8486541, 2022-12-01, custom)"
   xmlns:inkscape="http://www.inkscape.org/namespaces/inkscape"
   xmlns:sodipodi="http://sodipodi.sourceforge.net/DTD/sodipodi-0.dtd"
   xmlns="http://www.w3.org/2000/svg"
   xmlns:svg="http://www.w3.org/2000/svg"><defs
   id="defs35" /><sodipodi:namedview
   id="namedview33"
   pagecolor="#505050"
   bordercolor="#eeeeee"
   borderopacity="1"
   inkscape:showpageshadow="0"
   inkscape:pageopacity="0"
   inkscape:pagecheckerboard="0"
   inkscape:deskcolor="#505050"
   showgrid="false"
   inkscape:zoom="0.64449837"
   inkscape:cx="173.00277"
   inkscape:cy="481.77003"
   inkscape:window-width="1920"
   inkscape:window-height="1016"
   inkscape:window-x="1920"
   inkscape:window-y="27"
   inkscape:window-maximized="1"
   inkscape:current-layer="Layer_1" />
<g
   inkscape:groupmode="layer"
   id="layer2"
   inkscape:label="background"><circle
     style="fill:#ffffff;fill-opacity:1;stroke-width:1.07165"
     id="path1072"
     cx="482.27383"
     cy="477.96826"
     r="441.83823" /></g><g
   id="g30"
   transform="translate(-24)">
	<polygon
   fill="#ba0000"
   points="565.3,319.5 499.4,319.5 407.4,738.7 473.4,738.7 "
   id="polygon18" />
	<polygon
   fill="#142661"
   points="220.6,627.4 306.7,627.4 194.5,501.1 355.7,365 255.9,365 151.7,452.9 102.5,494.5 145.3,542.6 "
   id="polygon20" />
	<polygon
   fill="#142661"
   points="397.4,627.4 478.4,262.5 412.4,262.5 331.4,627.4 319.4,681.7 385.3,681.7 "
   id="polygon22" />
	<g
   id="g26">
		<polygon
   fill="#ba0000"
   points="535.2,632.9 634.7,632.9 741.9,542.5 791.1,500.9 748.3,452.8 668.9,363.4 582.7,363.4 699.1,494.3 535.1,632.8 "
   id="polygon24" />
	</g>
	<polygon
   fill="#ba0000"
   points="773.5,221.3 760.9,280.2 702,280.2 693.7,319.2 752.6,319.2 740.1,378.1 779.4,378.1 791.9,319.2 850.8,319.2 859.1,280.2 800.2,280.2 812.7,221.3 "
   id="polygon28" />
</g>
</svg>
