<?xml version="1.0" encoding="UTF-8" standalone="no"?>
<!-- Generator: Adobe Illustrator 18.0.0, SVG Export Plug-In . SVG Version: 6.00 Build 0)  -->

<svg
   version="1.1"
   id="Layer_1"
   x="0px"
   y="0px"
   viewBox="0 0 816 183"
   enable-background="new 0 0 960 960"
   xml:space="preserve"
   sodipodi:docname="logo_transparent_rectangular.svg"
   width="816"
   height="183"
   inkscape:version="1.2.2 (b0a8486541, 2022-12-01, custom)"
   xmlns:inkscape="http://www.inkscape.org/namespaces/inkscape"
   xmlns:sodipodi="http://sodipodi.sourceforge.net/DTD/sodipodi-0.dtd"
   xmlns="http://www.w3.org/2000/svg"
   xmlns:svg="http://www.w3.org/2000/svg"
   xmlns:rdf="http://www.w3.org/1999/02/22-rdf-syntax-ns#"
   xmlns:cc="http://creativecommons.org/ns#"
   xmlns:dc="http://purl.org/dc/elements/1.1/"><title
   id="title1275">DevPhil+</title><defs
   id="defs1224" /><sodipodi:namedview
   id="namedview1222"
   pagecolor="#505050"
   bordercolor="#eeeeee"
   borderopacity="1"
   inkscape:showpageshadow="false"
   inkscape:pageopacity="0"
   inkscape:pagecheckerboard="true"
   inkscape:deskcolor="#505050"
   showgrid="false"
   inkscape:zoom="0.846875"
   inkscape:cx="407.97048"
   inkscape:cy="91.512915"
   inkscape:window-width="1920"
   inkscape:window-height="1016"
   inkscape:window-x="1920"
   inkscape:window-y="27"
   inkscape:window-maximized="1"
   inkscape:current-layer="Layer_1"><sodipodi:guide
     position="0,183"
     orientation="0,816"
     id="guide1265"
     inkscape:locked="false" /><sodipodi:guide
     position="816,183"
     orientation="183,0"
     id="guide1267"
     inkscape:locked="false" /><sodipodi:guide
     position="816,0"
     orientation="0,-816"
     id="guide1269"
     inkscape:locked="false" /><sodipodi:guide
     position="0,0"
     orientation="-183,0"
     id="guide1271"
     inkscape:locked="false" /></sodipodi:namedview>
<g
   id="g1219"
   transform="translate(-72,-388.5)">
	<g
   id="g1193">
		<polygon
   fill="#ba0000"
   points="235.7,423.2 212.3,423.2 179.8,571.5 203.2,571.5 "
   id="polygon1181" />
		<polygon
   fill="#142661"
   points="126.2,439.3 89.4,470.4 72,485.1 87.1,502.1 113.8,532.1 144.2,532.1 104.5,487.5 161.6,439.3 "
   id="polygon1183" />
		<polygon
   fill="#142661"
   points="181.6,403.1 153,532.1 148.7,551.3 172,551.3 176.3,532.1 204.9,403.1 "
   id="polygon1185" />
		<g
   id="g1189">
			<polygon
   fill="#ba0000"
   points="272.3,438.8 241.8,438.8 283,485.1 225,534 225,534.1 260.2,534.1 298.1,502.1 315.5,487.4 300.4,470.4 "
   id="polygon1187" />
		</g>
		<polygon
   fill="#ba0000"
   points="336.6,423.1 339.6,409.4 318.7,409.4 323.1,388.5 309.3,388.5 304.8,409.4 284,409.4 281.1,423.1 301.9,423.1 297.5,444 311.4,444 315.8,423.1 "
   id="polygon1191" />
	</g>
	<path
   fill="#142661"
   d="m 441.9,498.1 c 1.7,6.3 6.5,9.5 14.2,9.5 5,0 8.7,-1.7 11.3,-5 l 10.5,6 c -5,7.2 -12.3,10.8 -21.9,10.8 -8.3,0 -15,-2.5 -20,-7.5 -5,-5 -7.5,-11.4 -7.5,-19 0,-7.6 2.5,-13.9 7.4,-19 5,-5.1 11.3,-7.6 19.1,-7.6 7.4,0 13.5,2.5 18.2,7.6 4.8,5.1 7.2,11.4 7.2,18.9 0,1.7 -0.2,3.5 -0.5,5.3 z m -0.2,-10 h 25.6 c -0.7,-3.4 -2.3,-6 -4.6,-7.6 -2.3,-1.7 -4.9,-2.5 -7.9,-2.5 -3.5,0 -6.4,0.9 -8.6,2.7 -2.2,1.7 -3.8,4.2 -4.5,7.4 z"
   id="path1195" />
	<path
   fill="#142661"
   d="m 520.4,467.7 h 14.3 L 515.6,518 H 500.8 L 481.7,467.7 H 496 l 12.2,35.2 z"
   id="path1197" />
	<path
   fill="#142661"
   d="m 570.2,466.3 c 6.8,0 12.6,2.6 17.3,7.7 4.8,5.1 7.2,11.4 7.2,18.9 0,7.4 -2.4,13.7 -7.2,18.9 -4.8,5.2 -10.6,7.7 -17.3,7.7 -7,0 -12.5,-2.4 -16.3,-7.3 v 26 h -13 v -70.4 h 13 v 5.9 c 3.8,-5 9.3,-7.4 16.3,-7.4 z M 557.8,503 c 2.6,2.6 5.9,4 10,4 4,0 7.4,-1.3 10,-4 2.6,-2.6 4,-6 4,-10.2 0,-4.2 -1.3,-7.6 -4,-10.2 -2.6,-2.6 -6,-4 -10,-4 -4,0 -7.3,1.3 -10,4 -2.6,2.6 -3.9,6 -3.9,10.2 0,4.2 1.3,7.6 3.9,10.2 z"
   id="path1199" />
	<path
   fill="#142661"
   d="m 631.8,466.3 c 5.5,0 10,1.8 13.6,5.5 3.6,3.7 5.4,8.8 5.4,15.3 V 518 h -13 v -29.3 c 0,-3.4 -0.9,-5.9 -2.7,-7.7 -1.8,-1.8 -4.2,-2.7 -7.2,-2.7 -3.4,0 -6,1 -8,3.1 -2,2.1 -3,5.2 -3,9.4 v 27.1 h -13 v -70.4 h 13 v 25.7 c 3.1,-4.6 8.1,-6.9 14.9,-6.9 z"
   id="path1201" />
	<path
   fill="#142661"
   d="m 668.3,461.6 c -2.1,0 -4,-0.8 -5.6,-2.4 -1.6,-1.6 -2.4,-3.4 -2.4,-5.6 0,-2.1 0.8,-4 2.4,-5.6 1.6,-1.6 3.4,-2.4 5.6,-2.4 2.2,0 4.1,0.8 5.7,2.4 1.6,1.6 2.4,3.5 2.4,5.6 0,2.1 -0.8,4 -2.4,5.6 -1.6,1.6 -3.5,2.4 -5.7,2.4 z m -6.4,56.3 v -50.3 h 13 v 50.3 z"
   id="path1203" />
	<path
   fill="#142661"
   d="m 686.7,517.9 v -73.4 h 13 v 73.4 z"
   id="path1205" />
	<path
   fill="#ba0000"
   d="m 739.6,466.5 c 7.2,0 13.3,2.5 18.3,7.6 5.1,5.1 7.6,11.3 7.6,18.7 0,7.4 -2.5,13.6 -7.6,18.7 -5.1,5.1 -11.2,7.6 -18.3,7.6 -8.9,0 -15.7,-3.7 -20.3,-11.1 v 30 h -6.6 v -70.4 h 6.6 v 9.9 c 4.6,-7.4 11.4,-11 20.3,-11 z M 725,506.9 c 3.8,3.9 8.5,5.8 14.1,5.8 5.6,0 10.3,-1.9 14.1,-5.8 3.8,-3.9 5.7,-8.6 5.7,-14.1 0,-5.6 -1.9,-10.3 -5.7,-14.1 -3.8,-3.9 -8.5,-5.8 -14.1,-5.8 -5.6,0 -10.3,1.9 -14.1,5.8 -3.8,3.9 -5.7,8.6 -5.7,14.1 0,5.6 1.9,10.3 5.7,14.1 z"
   id="path1207" />
	<path
   fill="#ba0000"
   d="m 776.6,517.9 v -73.4 h 6.6 v 73.4 z"
   id="path1209" />
	<path
   fill="#ba0000"
   d="m 832.7,467.7 h 6.6 V 518 h -6.6 v -7.8 c -3.8,6 -9.4,9 -16.9,9 -6.1,0 -10.9,-1.9 -14.4,-5.6 -3.5,-3.7 -5.3,-8.7 -5.3,-15 v -30.9 h 6.6 v 30.9 c 0,4.5 1.2,8 3.6,10.5 2.4,2.5 5.7,3.7 10.1,3.7 4.8,0 8.7,-1.5 11.8,-4.6 3,-3 4.5,-7.8 4.5,-14.1 z"
   id="path1211" />
	<path
   fill="#ba0000"
   d="m 858.6,480.7 c 0,2.2 1,4 3.1,5.3 2,1.3 4.5,2.4 7.4,3.2 2.9,0.8 5.8,1.6 8.6,2.5 2.9,0.8 5.3,2.3 7.3,4.5 2,2.2 3,5 3,8.5 0,4.3 -1.7,7.8 -5.1,10.5 -3.4,2.7 -7.8,4 -13.1,4 -4.8,0 -8.9,-1.1 -12.3,-3.2 -3.4,-2.1 -5.7,-4.9 -7.1,-8.3 l 5.6,-3.3 c 0.9,2.6 2.6,4.7 5.1,6.2 2.4,1.5 5.3,2.3 8.7,2.3 3.3,0 6,-0.7 8.2,-2 2.2,-1.3 3.3,-3.3 3.3,-6.1 0,-2.3 -1,-4.1 -3,-5.4 -2,-1.3 -4.5,-2.4 -7.3,-3.2 -2.9,-0.8 -5.8,-1.6 -8.6,-2.5 -2.9,-0.8 -5.3,-2.3 -7.3,-4.4 -2,-2.1 -3,-4.9 -3,-8.3 0,-4.1 1.6,-7.5 4.9,-10.3 3.3,-2.7 7.4,-4.1 12.3,-4.1 4.1,0 7.7,0.9 10.8,2.8 3.1,1.8 5.4,4.3 6.8,7.5 l -5.5,3.2 c -1.9,-4.7 -6,-7 -12.1,-7 -2.9,0 -5.4,0.7 -7.4,2 -2.2,1.2 -3.3,3.1 -3.3,5.6 z"
   id="path1213" />
	<g
   id="g1217">
		<path
   fill="#142661"
   d="m 412,457.7 c -6.5,-6.8 -14.5,-10.2 -24.2,-10.2 h -6.4 v 13.3 h 6.4 c 6.1,0 11.1,2 14.9,6.1 3.8,4.1 5.7,9.3 5.7,15.8 0,6.5 -1.9,11.8 -5.7,15.8 -3.8,4.1 -8.8,6.1 -14.9,6.1 h -14.1 v -39.5 h -13.9 v 52.7 h 27.9 c 9.7,0 17.7,-3.4 24.2,-10.2 6.5,-6.8 9.7,-15.1 9.7,-25 0.1,-9.8 -3.1,-18.1 -9.6,-24.9 z"
   id="path1215" />
	</g>
</g>
<metadata
   id="metadata1273"><rdf:RDF><cc:Work
       rdf:about=""><dc:title>DevPhil+</dc:title><dc:creator><cc:Agent><dc:title>Glen Fajardo</dc:title></cc:Agent></dc:creator><dc:contributor><cc:Agent><dc:title>Ferdinand Tomale</dc:title></cc:Agent></dc:contributor><dc:subject><rdf:Bag><rdf:li>dev phil plus</rdf:li></rdf:Bag></dc:subject></cc:Work></rdf:RDF></metadata></svg>
